<svg width="65" height="20" viewBox="0 0 65 20" fill="none" xmlns="http://www.w3.org/2000/svg">
<rect width="65" height="19.8621" rx="5" fill="#FD5E5E"/>
<path d="M19.7287 5.24574V5.79261H17.6307V5.24574H19.7287ZM16.4176 6.40909H17.054C17.1087 6.76705 17.2296 7.04214 17.4169 7.23438C17.6042 7.42661 17.9041 7.52273 18.3168 7.52273C18.6084 7.52273 18.852 7.4407 19.0476 7.27663C19.2448 7.11257 19.3923 6.89548 19.4901 6.62536C19.5895 6.35523 19.6392 6.06108 19.6392 5.7429V5.17614C19.6392 4.82481 19.5837 4.51574 19.4727 4.24893C19.3633 3.98047 19.205 3.77166 18.9979 3.62251C18.7924 3.47171 18.5455 3.39631 18.2571 3.39631C18.0052 3.39631 17.7964 3.44105 17.6307 3.53054C17.465 3.62003 17.3357 3.74846 17.2429 3.91584C17.1501 4.08321 17.0871 4.28456 17.054 4.51989H16.4176C16.4508 4.19508 16.5394 3.90672 16.6836 3.65483C16.8294 3.40128 17.0324 3.20241 17.2926 3.05824C17.5545 2.91241 17.8759 2.83949 18.2571 2.83949C18.6714 2.83949 19.0294 2.93643 19.331 3.13033C19.6326 3.32256 19.8654 3.59351 20.0295 3.94318C20.1935 4.29119 20.2756 4.69886 20.2756 5.16619V5.75284C20.2756 6.22017 20.1944 6.62784 20.032 6.97585C19.8696 7.32221 19.6417 7.5915 19.3484 7.78374C19.055 7.97431 18.7112 8.0696 18.3168 8.0696C17.9124 8.0696 17.576 7.99669 17.3075 7.85085C17.0407 7.70336 16.8344 7.5045 16.6886 7.25426C16.5444 7.00237 16.4541 6.72064 16.4176 6.40909ZM21.2332 8V4.18182H21.8199V5.84233H22.2077L23.5798 4.18182H24.3355L22.7943 6.02131L24.3554 8H23.5997L22.3469 6.3892H21.8199V8H21.2332ZM26.3869 8.07955C26.0289 8.07955 25.7207 7.99503 25.4622 7.82599C25.2037 7.65696 25.0048 7.42412 24.8656 7.12749C24.7264 6.83085 24.6568 6.49195 24.6568 6.1108C24.6568 5.72301 24.728 5.3808 24.8706 5.08416C25.0147 4.78587 25.2153 4.55303 25.4721 4.38565C25.7306 4.21662 26.0323 4.1321 26.377 4.1321C26.6454 4.1321 26.8874 4.18182 27.1028 4.28125C27.3182 4.38068 27.4947 4.51989 27.6323 4.69886C27.7698 4.87784 27.8552 5.08665 27.8883 5.32528H27.3017C27.2569 5.15128 27.1575 4.99716 27.0034 4.86293C26.8509 4.72704 26.6454 4.65909 26.3869 4.65909C26.1582 4.65909 25.9577 4.71875 25.7853 4.83807C25.6146 4.95573 25.4812 5.12228 25.3851 5.33771C25.2907 5.55149 25.2434 5.80256 25.2434 6.09091C25.2434 6.38589 25.2898 6.64276 25.3826 6.86151C25.4771 7.08026 25.6097 7.25012 25.7804 7.37109C25.9527 7.49207 26.1549 7.55256 26.3869 7.55256C26.5394 7.55256 26.6777 7.52604 26.802 7.47301C26.9263 7.41998 27.0315 7.34375 27.1177 7.24432C27.2039 7.14489 27.2652 7.02557 27.3017 6.88636H27.8883C27.8552 7.11174 27.7731 7.31475 27.6422 7.49538C27.513 7.67436 27.3414 7.81688 27.1277 7.92294C26.9155 8.02734 26.6686 8.07955 26.3869 8.07955ZM28.7459 8V4.18182H31.7488V8H31.1621V4.72869H29.3326V8H28.7459ZM32.8201 9.43182V4.18182H33.3869V4.78835H33.4565C33.4996 4.72206 33.5592 4.63755 33.6355 4.5348C33.7134 4.4304 33.8244 4.33759 33.9686 4.25639C34.1144 4.17353 34.3116 4.1321 34.5602 4.1321C34.8817 4.1321 35.1651 4.21248 35.4103 4.37322C35.6556 4.53397 35.847 4.76184 35.9846 5.05682C36.1221 5.3518 36.1909 5.69981 36.1909 6.10085C36.1909 6.50521 36.1221 6.85571 35.9846 7.15234C35.847 7.44732 35.6564 7.67602 35.4128 7.83842C35.1692 7.99917 34.8883 8.07955 34.5701 8.07955C34.3249 8.07955 34.1285 8.03894 33.981 7.95774C33.8335 7.87488 33.72 7.78125 33.6404 7.67685C33.5609 7.57079 33.4996 7.48295 33.4565 7.41335H33.4068V9.43182H32.8201ZM33.3968 6.09091C33.3968 6.37926 33.4391 6.63364 33.5236 6.85405C33.6081 7.0728 33.7316 7.24432 33.894 7.36861C34.0564 7.49124 34.2553 7.55256 34.4906 7.55256C34.7359 7.55256 34.9405 7.48793 35.1046 7.35866C35.2703 7.22775 35.3946 7.05208 35.4775 6.83168C35.562 6.60961 35.6042 6.36269 35.6042 6.09091C35.6042 5.82244 35.5628 5.58049 35.4799 5.36506C35.3987 5.14796 35.2753 4.97644 35.1096 4.8505C34.9455 4.72289 34.7392 4.65909 34.4906 4.65909C34.252 4.65909 34.0514 4.71958 33.889 4.84055C33.7266 4.95987 33.604 5.12725 33.5211 5.34268C33.4383 5.55646 33.3968 5.80587 33.3968 6.09091ZM38.6866 8.07955C38.3187 8.07955 38.0014 7.99834 37.7346 7.83594C37.4694 7.67188 37.2647 7.44318 37.1206 7.14986C36.978 6.85488 36.9068 6.51184 36.9068 6.12074C36.9068 5.72964 36.978 5.38494 37.1206 5.08665C37.2647 4.7867 37.4653 4.55303 37.7221 4.38565C37.9806 4.21662 38.2823 4.1321 38.627 4.1321C38.8258 4.1321 39.0222 4.16525 39.2161 4.23153C39.41 4.29782 39.5865 4.40554 39.7456 4.55469C39.9047 4.70218 40.0314 4.89773 40.1259 5.14134C40.2203 5.38494 40.2676 5.6849 40.2676 6.04119V6.28977H37.3244V5.78267H39.671C39.671 5.56723 39.6279 5.375 39.5417 5.20597C39.4572 5.03693 39.3362 4.90353 39.1788 4.80575C39.023 4.70798 38.8391 4.65909 38.627 4.65909C38.3933 4.65909 38.1911 4.71709 38.0204 4.8331C37.8514 4.94744 37.7213 5.09659 37.6301 5.28054C37.539 5.46449 37.4934 5.66169 37.4934 5.87216V6.21023C37.4934 6.49858 37.5431 6.74302 37.6426 6.94354C37.7437 7.1424 37.8837 7.29403 38.0627 7.39844C38.2417 7.50118 38.4496 7.55256 38.6866 7.55256C38.8407 7.55256 38.9799 7.53101 39.1042 7.48793C39.2302 7.44318 39.3387 7.37689 39.4299 7.28906C39.521 7.19957 39.5914 7.08854 39.6412 6.95597L40.2079 7.11506C40.1483 7.30729 40.048 7.47633 39.9071 7.62216C39.7663 7.76634 39.5923 7.87902 39.3851 7.96023C39.178 8.03977 38.9451 8.07955 38.6866 8.07955ZM42.7111 8.07955C42.3532 8.07955 42.0449 7.99503 41.7864 7.82599C41.5279 7.65696 41.329 7.42412 41.1898 7.12749C41.0506 6.83085 40.981 6.49195 40.981 6.1108C40.981 5.72301 41.0523 5.3808 41.1948 5.08416C41.339 4.78587 41.5395 4.55303 41.7963 4.38565C42.0549 4.21662 42.3565 4.1321 42.7012 4.1321C42.9696 4.1321 43.2116 4.18182 43.427 4.28125C43.6425 4.38068 43.819 4.51989 43.9565 4.69886C44.094 4.87784 44.1794 5.08665 44.2125 5.32528H43.6259C43.5811 5.15128 43.4817 4.99716 43.3276 4.86293C43.1751 4.72704 42.9696 4.65909 42.7111 4.65909C42.4824 4.65909 42.2819 4.71875 42.1096 4.83807C41.9389 4.95573 41.8055 5.12228 41.7093 5.33771C41.6149 5.55149 41.5676 5.80256 41.5676 6.09091C41.5676 6.38589 41.6141 6.64276 41.7069 6.86151C41.8013 7.08026 41.9339 7.25012 42.1046 7.37109C42.2769 7.49207 42.4791 7.55256 42.7111 7.55256C42.8636 7.55256 43.002 7.52604 43.1262 7.47301C43.2505 7.41998 43.3558 7.34375 43.4419 7.24432C43.5281 7.14489 43.5894 7.02557 43.6259 6.88636H44.2125C44.1794 7.11174 44.0974 7.31475 43.9664 7.49538C43.8372 7.67436 43.6657 7.81688 43.4519 7.92294C43.2398 8.02734 42.9928 8.07955 42.7111 8.07955ZM46.6213 8.07955C46.2633 8.07955 45.9551 7.99503 45.6966 7.82599C45.438 7.65696 45.2392 7.42412 45.1 7.12749C44.9608 6.83085 44.8912 6.49195 44.8912 6.1108C44.8912 5.72301 44.9624 5.3808 45.1049 5.08416C45.2491 4.78587 45.4496 4.55303 45.7065 4.38565C45.965 4.21662 46.2666 4.1321 46.6113 4.1321C46.8798 4.1321 47.1217 4.18182 47.3372 4.28125C47.5526 4.38068 47.7291 4.51989 47.8667 4.69886C48.0042 4.87784 48.0895 5.08665 48.1227 5.32528H47.536C47.4913 5.15128 47.3919 4.99716 47.2377 4.86293C47.0853 4.72704 46.8798 4.65909 46.6213 4.65909C46.3926 4.65909 46.1921 4.71875 46.0197 4.83807C45.849 4.95573 45.7156 5.12228 45.6195 5.33771C45.525 5.55149 45.4778 5.80256 45.4778 6.09091C45.4778 6.38589 45.5242 6.64276 45.617 6.86151C45.7115 7.08026 45.844 7.25012 46.0147 7.37109C46.1871 7.49207 46.3893 7.55256 46.6213 7.55256C46.7737 7.55256 46.9121 7.52604 47.0364 7.47301C47.1607 7.41998 47.2659 7.34375 47.3521 7.24432C47.4383 7.14489 47.4996 7.02557 47.536 6.88636H48.1227C48.0895 7.11174 48.0075 7.31475 47.8766 7.49538C47.7473 7.67436 47.5758 7.81688 47.362 7.92294C47.1499 8.02734 46.903 8.07955 46.6213 8.07955ZM16.1989 16V15.4531H16.3381C16.4524 15.4531 16.5477 15.4308 16.6239 15.386C16.7002 15.3396 16.7615 15.2592 16.8079 15.1449C16.8559 15.0289 16.8924 14.8681 16.9173 14.6626C16.9438 14.4555 16.9628 14.192 16.9744 13.8722L17.044 12.1818H19.5895V16H19.0028V12.7287H17.6009L17.5412 14.0909C17.5279 14.4041 17.4998 14.68 17.4567 14.9187C17.4152 15.1557 17.3514 15.3545 17.2653 15.5153C17.1808 15.676 17.0681 15.797 16.9272 15.8782C16.7863 15.9594 16.6098 16 16.3977 16H16.1989ZM21.7894 16.0895C21.5475 16.0895 21.3279 16.0439 21.1307 15.9528C20.9335 15.86 20.7769 15.7266 20.6609 15.5526C20.5449 15.3769 20.4869 15.1648 20.4869 14.9162C20.4869 14.6974 20.5299 14.5201 20.6161 14.3842C20.7023 14.2467 20.8175 14.139 20.9616 14.0611C21.1058 13.9832 21.2649 13.9252 21.4389 13.8871C21.6146 13.8473 21.7911 13.8158 21.9684 13.7926C22.2004 13.7628 22.3885 13.7404 22.5327 13.7255C22.6785 13.7089 22.7846 13.6816 22.8509 13.6435C22.9188 13.6054 22.9528 13.5391 22.9528 13.4446V13.4247C22.9528 13.1795 22.8857 12.9889 22.7514 12.853C22.6188 12.7171 22.4175 12.6491 22.1474 12.6491C21.8673 12.6491 21.6477 12.7105 21.4886 12.8331C21.3295 12.9557 21.2177 13.0866 21.1531 13.2259L20.5962 13.027C20.6957 12.795 20.8282 12.6143 20.994 12.4851C21.1613 12.3542 21.3436 12.263 21.5408 12.2116C21.7397 12.1586 21.9353 12.1321 22.1275 12.1321C22.2501 12.1321 22.391 12.147 22.5501 12.1768C22.7108 12.205 22.8658 12.2638 23.0149 12.3533C23.1657 12.4428 23.2908 12.5779 23.3903 12.7585C23.4897 12.9392 23.5394 13.1811 23.5394 13.4844V16H22.9528V15.483H22.9229C22.8832 15.5658 22.8169 15.6545 22.7241 15.7489C22.6313 15.8434 22.5078 15.9238 22.3537 15.9901C22.1996 16.0563 22.0115 16.0895 21.7894 16.0895ZM21.8789 15.5625C22.1109 15.5625 22.3065 15.5169 22.4656 15.4258C22.6263 15.3346 22.7473 15.217 22.8285 15.0728C22.9113 14.9286 22.9528 14.777 22.9528 14.6179V14.081C22.9279 14.1108 22.8732 14.1381 22.7887 14.163C22.7058 14.1862 22.6097 14.2069 22.5004 14.2251C22.3926 14.2417 22.2874 14.2566 22.1847 14.2699C22.0836 14.2815 22.0015 14.2914 21.9386 14.2997C21.7861 14.3196 21.6436 14.3519 21.511 14.3967C21.3801 14.4397 21.274 14.5052 21.1928 14.593C21.1133 14.6792 21.0735 14.7969 21.0735 14.946C21.0735 15.1499 21.1489 15.304 21.2997 15.4084C21.4522 15.5111 21.6452 15.5625 21.8789 15.5625ZM27.444 10.75L27.7423 11.108C27.6263 11.2206 27.492 11.2994 27.3396 11.3441C27.1871 11.3888 27.0148 11.4162 26.8225 11.4261C26.6303 11.4361 26.4165 11.446 26.1812 11.456C25.916 11.4659 25.6965 11.5305 25.5225 11.6499C25.3485 11.7692 25.2142 11.9415 25.1198 12.1669C25.0253 12.3923 24.9648 12.669 24.9383 12.9972H24.988C25.1173 12.7585 25.2963 12.5829 25.5249 12.4702C25.7536 12.3575 25.9989 12.3011 26.2607 12.3011C26.559 12.3011 26.8275 12.3707 27.0661 12.5099C27.3048 12.6491 27.4937 12.8555 27.6329 13.1289C27.7721 13.4023 27.8417 13.7396 27.8417 14.1406C27.8417 14.54 27.7704 14.8847 27.6279 15.1747C27.4871 15.4647 27.289 15.6884 27.0338 15.8459C26.7803 16.0017 26.4828 16.0795 26.1414 16.0795C25.8 16.0795 25.5009 15.9992 25.2441 15.8384C24.9872 15.676 24.7875 15.4357 24.645 15.1175C24.5025 14.7977 24.4312 14.4025 24.4312 13.9318V13.5241C24.4312 12.674 24.5754 12.0294 24.8637 11.5902C25.1537 11.151 25.5896 10.924 26.1713 10.9091C26.3767 10.9025 26.5599 10.9008 26.7206 10.9041C26.8814 10.9074 27.0214 10.9 27.1407 10.8817C27.26 10.8635 27.3611 10.8196 27.444 10.75ZM26.1414 15.5526C26.3718 15.5526 26.5698 15.4946 26.7355 15.3786C26.9029 15.2625 27.0313 15.0993 27.1208 14.8888C27.2103 14.6767 27.2551 14.4273 27.2551 14.1406C27.2551 13.8622 27.2095 13.6252 27.1183 13.4297C27.0289 13.2341 26.9004 13.085 26.733 12.9822C26.5657 12.8795 26.3651 12.8281 26.1315 12.8281C25.9608 12.8281 25.8075 12.8571 25.6716 12.9151C25.5357 12.9731 25.4197 13.0585 25.3236 13.1712C25.2275 13.2839 25.1529 13.4214 25.0999 13.5838C25.0485 13.7462 25.0212 13.9318 25.0178 14.1406C25.0178 14.5682 25.1181 14.9104 25.3186 15.1673C25.5191 15.4241 25.7934 15.5526 26.1414 15.5526ZM30.2902 16.0795C29.9455 16.0795 29.6431 15.9975 29.3829 15.8335C29.1244 15.6694 28.9222 15.4399 28.7764 15.1449C28.6322 14.8499 28.5601 14.5052 28.5601 14.1108C28.5601 13.7131 28.6322 13.3659 28.7764 13.0692C28.9222 12.7726 29.1244 12.5423 29.3829 12.3782C29.6431 12.2141 29.9455 12.1321 30.2902 12.1321C30.6349 12.1321 30.9365 12.2141 31.195 12.3782C31.4552 12.5423 31.6574 12.7726 31.8016 13.0692C31.9474 13.3659 32.0203 13.7131 32.0203 14.1108C32.0203 14.5052 31.9474 14.8499 31.8016 15.1449C31.6574 15.4399 31.4552 15.6694 31.195 15.8335C30.9365 15.9975 30.6349 16.0795 30.2902 16.0795ZM30.2902 15.5526C30.5521 15.5526 30.7675 15.4854 30.9365 15.3512C31.1056 15.217 31.2307 15.0405 31.3119 14.8217C31.3931 14.603 31.4337 14.366 31.4337 14.1108C31.4337 13.8556 31.3931 13.6178 31.3119 13.3974C31.2307 13.177 31.1056 12.9988 30.9365 12.8629C30.7675 12.727 30.5521 12.6591 30.2902 12.6591C30.0284 12.6591 29.8129 12.727 29.6439 12.8629C29.4749 12.9988 29.3498 13.177 29.2686 13.3974C29.1874 13.6178 29.1468 13.8556 29.1468 14.1108C29.1468 14.366 29.1874 14.603 29.2686 14.8217C29.3498 15.0405 29.4749 15.217 29.6439 15.3512C29.8129 15.4854 30.0284 15.5526 30.2902 15.5526ZM32.9158 17.4318V12.1818H33.4826V12.7884H33.5522C33.5953 12.7221 33.6549 12.6375 33.7312 12.5348C33.8091 12.4304 33.9201 12.3376 34.0643 12.2564C34.2101 12.1735 34.4073 12.1321 34.6559 12.1321C34.9774 12.1321 35.2608 12.2125 35.506 12.3732C35.7513 12.534 35.9427 12.7618 36.0803 13.0568C36.2178 13.3518 36.2866 13.6998 36.2866 14.1009C36.2866 14.5052 36.2178 14.8557 36.0803 15.1523C35.9427 15.4473 35.7521 15.676 35.5085 15.8384C35.2649 15.9992 34.984 16.0795 34.6658 16.0795C34.4206 16.0795 34.2242 16.0389 34.0767 15.9577C33.9292 15.8749 33.8157 15.7812 33.7362 15.6768C33.6566 15.5708 33.5953 15.483 33.5522 15.4134H33.5025V17.4318H32.9158ZM33.4925 14.0909C33.4925 14.3793 33.5348 14.6336 33.6193 14.854C33.7038 15.0728 33.8273 15.2443 33.9897 15.3686C34.1521 15.4912 34.351 15.5526 34.5863 15.5526C34.8316 15.5526 35.0362 15.4879 35.2003 15.3587C35.366 15.2277 35.4903 15.0521 35.5732 14.8317C35.6577 14.6096 35.6999 14.3627 35.6999 14.0909C35.6999 13.8224 35.6585 13.5805 35.5756 13.3651C35.4944 13.148 35.371 12.9764 35.2053 12.8505C35.0412 12.7229 34.8349 12.6591 34.5863 12.6591C34.3477 12.6591 34.1471 12.7196 33.9847 12.8406C33.8223 12.9599 33.6997 13.1272 33.6168 13.3427C33.534 13.5565 33.4925 13.8059 33.4925 14.0909ZM38.305 16.0895C38.0631 16.0895 37.8435 16.0439 37.6463 15.9528C37.4491 15.86 37.2925 15.7266 37.1765 15.5526C37.0605 15.3769 37.0025 15.1648 37.0025 14.9162C37.0025 14.6974 37.0456 14.5201 37.1317 14.3842C37.2179 14.2467 37.3331 14.139 37.4773 14.0611C37.6214 13.9832 37.7805 13.9252 37.9545 13.8871C38.1302 13.8473 38.3067 13.8158 38.484 13.7926C38.716 13.7628 38.9041 13.7404 39.0483 13.7255C39.1941 13.7089 39.3002 13.6816 39.3665 13.6435C39.4344 13.6054 39.4684 13.5391 39.4684 13.4446V13.4247C39.4684 13.1795 39.4013 12.9889 39.267 12.853C39.1345 12.7171 38.9331 12.6491 38.663 12.6491C38.3829 12.6491 38.1634 12.7105 38.0043 12.8331C37.8452 12.9557 37.7333 13.0866 37.6687 13.2259L37.1119 13.027C37.2113 12.795 37.3439 12.6143 37.5096 12.4851C37.677 12.3542 37.8593 12.263 38.0565 12.2116C38.2553 12.1586 38.4509 12.1321 38.6431 12.1321C38.7657 12.1321 38.9066 12.147 39.0657 12.1768C39.2264 12.205 39.3814 12.2638 39.5305 12.3533C39.6813 12.4428 39.8065 12.5779 39.9059 12.7585C40.0053 12.9392 40.055 13.1811 40.055 13.4844V16H39.4684V15.483H39.4386C39.3988 15.5658 39.3325 15.6545 39.2397 15.7489C39.1469 15.8434 39.0234 15.9238 38.8693 15.9901C38.7152 16.0563 38.5271 16.0895 38.305 16.0895ZM38.3945 15.5625C38.6265 15.5625 38.8221 15.5169 38.9812 15.4258C39.1419 15.3346 39.2629 15.217 39.3441 15.0728C39.427 14.9286 39.4684 14.777 39.4684 14.6179V14.081C39.4435 14.1108 39.3888 14.1381 39.3043 14.163C39.2215 14.1862 39.1254 14.2069 39.016 14.2251C38.9083 14.2417 38.803 14.2566 38.7003 14.2699C38.5992 14.2815 38.5172 14.2914 38.4542 14.2997C38.3017 14.3196 38.1592 14.3519 38.0266 14.3967C37.8957 14.4397 37.7897 14.5052 37.7085 14.593C37.6289 14.6792 37.5891 14.7969 37.5891 14.946C37.5891 15.1499 37.6645 15.304 37.8153 15.4084C37.9678 15.5111 38.1609 15.5625 38.3945 15.5625ZM40.6063 12.7287V12.1818H43.7085V12.7287H42.4557V16H41.8691V12.7287H40.6063ZM45.9172 16.0795C45.5725 16.0795 45.27 15.9975 45.0099 15.8335C44.7513 15.6694 44.5492 15.4399 44.4033 15.1449C44.2591 14.8499 44.1871 14.5052 44.1871 14.1108C44.1871 13.7131 44.2591 13.3659 44.4033 13.0692C44.5492 12.7726 44.7513 12.5423 45.0099 12.3782C45.27 12.2141 45.5725 12.1321 45.9172 12.1321C46.2619 12.1321 46.5635 12.2141 46.822 12.3782C47.0822 12.5423 47.2844 12.7726 47.4285 13.0692C47.5744 13.3659 47.6473 13.7131 47.6473 14.1108C47.6473 14.5052 47.5744 14.8499 47.4285 15.1449C47.2844 15.4399 47.0822 15.6694 46.822 15.8335C46.5635 15.9975 46.2619 16.0795 45.9172 16.0795ZM45.9172 15.5526C46.179 15.5526 46.3944 15.4854 46.5635 15.3512C46.7325 15.217 46.8576 15.0405 46.9388 14.8217C47.02 14.603 47.0606 14.366 47.0606 14.1108C47.0606 13.8556 47.02 13.6178 46.9388 13.3974C46.8576 13.177 46.7325 12.9988 46.5635 12.8629C46.3944 12.727 46.179 12.6591 45.9172 12.6591C45.6553 12.6591 45.4399 12.727 45.2709 12.8629C45.1018 12.9988 44.9767 13.177 44.8955 13.3974C44.8143 13.6178 44.7737 13.8556 44.7737 14.1108C44.7737 14.366 44.8143 14.603 44.8955 14.8217C44.9767 15.0405 45.1018 15.217 45.2709 15.3512C45.4399 15.4854 45.6553 15.5526 45.9172 15.5526ZM48.5428 17.4318V12.1818H49.1096V12.7884H49.1792C49.2222 12.7221 49.2819 12.6375 49.3581 12.5348C49.436 12.4304 49.5471 12.3376 49.6912 12.2564C49.8371 12.1735 50.0343 12.1321 50.2828 12.1321C50.6043 12.1321 50.8877 12.2125 51.133 12.3732C51.3783 12.534 51.5697 12.7618 51.7072 13.0568C51.8448 13.3518 51.9135 13.6998 51.9135 14.1009C51.9135 14.5052 51.8448 14.8557 51.7072 15.1523C51.5697 15.4473 51.3791 15.676 51.1355 15.8384C50.8919 15.9992 50.611 16.0795 50.2928 16.0795C50.0475 16.0795 49.8511 16.0389 49.7037 15.9577C49.5562 15.8749 49.4426 15.7812 49.3631 15.6768C49.2836 15.5708 49.2222 15.483 49.1792 15.4134H49.1294V17.4318H48.5428ZM49.1195 14.0909C49.1195 14.3793 49.1618 14.6336 49.2463 14.854C49.3308 15.0728 49.4542 15.2443 49.6167 15.3686C49.7791 15.4912 49.9779 15.5526 50.2132 15.5526C50.4585 15.5526 50.6632 15.4879 50.8272 15.3587C50.993 15.2277 51.1172 15.0521 51.2001 14.8317C51.2846 14.6096 51.3269 14.3627 51.3269 14.0909C51.3269 13.8224 51.2855 13.5805 51.2026 13.3651C51.1214 13.148 50.9979 12.9764 50.8322 12.8505C50.6681 12.7229 50.4618 12.6591 50.2132 12.6591C49.9746 12.6591 49.7741 12.7196 49.6117 12.8406C49.4493 12.9599 49.3266 13.1272 49.2438 13.3427C49.1609 13.5565 49.1195 13.8059 49.1195 14.0909ZM53.3951 15.1349L55.2346 12.1818H55.9107V16H55.324V13.0469L53.4945 16H52.8084V12.1818H53.3951V15.1349ZM59.282 16V12.7188H58.2678C58.0392 12.7188 57.8593 12.7718 57.7284 12.8778C57.5975 12.9839 57.532 13.1297 57.532 13.3153C57.532 13.4976 57.5909 13.641 57.7085 13.7454C57.8279 13.8498 57.9911 13.902 58.1982 13.902H59.4312V14.4489H58.1982C57.9397 14.4489 57.7168 14.4033 57.5296 14.3121C57.3423 14.221 57.1981 14.0909 57.097 13.9219C56.9959 13.7512 56.9454 13.549 56.9454 13.3153C56.9454 13.08 56.9984 12.8778 57.1045 12.7088C57.2106 12.5398 57.3622 12.4097 57.5594 12.3185C57.7583 12.2274 57.9944 12.1818 58.2678 12.1818H59.8389V16H59.282ZM56.7366 16L57.8204 14.1009H58.4568L57.373 16H56.7366Z" fill="white"/>
<path fill-rule="evenodd" clip-rule="evenodd" d="M6.69856 3.05066C6.48399 3.11144 6.3189 3.32041 6.3189 3.53122C6.3189 3.72962 6.51748 3.98505 6.70811 4.0319L6.83806 4.06382V5.63189C6.83806 6.87136 6.82228 7.24372 6.76283 7.40874C6.72146 7.52354 5.93674 8.68617 5.01907 9.99237C4.10141 11.2985 3.30802 12.4488 3.25606 12.5485C2.93791 13.159 2.9145 13.916 3.19552 14.5039C3.50977 15.1612 4.13027 15.627 5.00542 15.8625C5.39199 15.9665 5.54223 15.9724 8.31523 15.9925C11.6611 16.0168 12.007 15.9952 12.592 15.7245C13.8397 15.1474 14.3544 13.7247 13.7418 12.547C13.6903 12.4481 12.8973 11.2985 11.9797 9.99237C11.062 8.68617 10.2773 7.52354 10.2359 7.40874C10.1765 7.24372 10.1607 6.87136 10.1607 5.63189V4.06382L10.2906 4.0319C10.3621 4.01432 10.4789 3.93209 10.5502 3.84915C10.8014 3.55688 10.6628 3.15291 10.2752 3.0475C10.0353 2.9823 6.93032 2.98505 6.69856 3.05066ZM9.07134 5.54839C9.07232 7.17446 9.11084 7.50042 9.35874 7.98174C9.43599 8.13182 10.1906 9.23798 11.0355 10.4399C12.8221 12.9812 12.8963 13.0963 12.9428 13.3997C13.0243 13.9318 12.7339 14.4884 12.2332 14.7597L11.9518 14.9121H8.65512C5.61351 14.9121 5.33633 14.905 5.07291 14.8201C4.68894 14.6964 4.322 14.4263 4.18016 14.1629C4.02763 13.8797 4.01694 13.3212 4.15898 13.0572C4.21162 12.9593 4.98471 11.8387 5.87688 10.5669C6.76906 9.29516 7.56239 8.13182 7.6398 7.98174C7.88791 7.50083 7.92643 7.17486 7.92742 5.54839L7.9283 4.06189H8.49938H9.07045L9.07134 5.54839ZM7.85042 10.4963C7.46152 10.6589 7.31688 10.7092 7.13881 10.7438C7.02953 10.765 6.80193 11.022 6.11357 11.9014C5.30638 12.9327 5.22882 13.0497 5.22876 13.2364C5.22871 13.349 5.26677 13.4944 5.31334 13.5594C5.49681 13.8159 5.54078 13.8195 8.49938 13.8195C11.458 13.8195 11.5019 13.8159 11.6854 13.5594C11.732 13.4944 11.7701 13.3479 11.7701 13.234C11.7701 13.0438 11.6974 12.9343 10.884 11.8987C10.1995 11.0271 9.96627 10.7643 9.8587 10.7435C9.68197 10.7092 9.53687 10.6588 9.14833 10.4963C8.92078 10.4012 8.74587 10.3661 8.49938 10.3661C8.25288 10.3661 8.07797 10.4012 7.85042 10.4963Z" fill="white"/>
</svg>
