<svg width="68" height="23" viewBox="0 0 68 23" fill="none" xmlns="http://www.w3.org/2000/svg">
<rect width="68" height="23" rx="5" fill="#FD5E5E"/>
<path d="M21.7287 7.24574V7.79261H19.6307V7.24574H21.7287ZM18.4176 8.40909H19.054C19.1087 8.76705 19.2296 9.04214 19.4169 9.23438C19.6042 9.42661 19.9041 9.52273 20.3168 9.52273C20.6084 9.52273 20.852 9.4407 21.0476 9.27663C21.2448 9.11257 21.3923 8.89548 21.4901 8.62536C21.5895 8.35523 21.6392 8.06108 21.6392 7.7429V7.17614C21.6392 6.82481 21.5837 6.51574 21.4727 6.24893C21.3633 5.98047 21.205 5.77166 20.9979 5.62251C20.7924 5.47171 20.5455 5.39631 20.2571 5.39631C20.0052 5.39631 19.7964 5.44105 19.6307 5.53054C19.465 5.62003 19.3357 5.74846 19.2429 5.91584C19.1501 6.08321 19.0871 6.28456 19.054 6.51989H18.4176C18.4508 6.19508 18.5394 5.90672 18.6836 5.65483C18.8294 5.40128 19.0324 5.20241 19.2926 5.05824C19.5545 4.91241 19.8759 4.83949 20.2571 4.83949C20.6714 4.83949 21.0294 4.93643 21.331 5.13033C21.6326 5.32256 21.8654 5.59351 22.0295 5.94318C22.1935 6.29119 22.2756 6.69886 22.2756 7.16619V7.75284C22.2756 8.22017 22.1944 8.62784 22.032 8.97585C21.8696 9.32221 21.6417 9.5915 21.3484 9.78374C21.055 9.97431 20.7112 10.0696 20.3168 10.0696C19.9124 10.0696 19.576 9.99669 19.3075 9.85085C19.0407 9.70336 18.8344 9.5045 18.6886 9.25426C18.5444 9.00237 18.4541 8.72064 18.4176 8.40909ZM23.2332 10V6.18182H23.8199V7.84233H24.2077L25.5798 6.18182H26.3355L24.7943 8.02131L26.3554 10H25.5997L24.3469 8.3892H23.8199V10H23.2332ZM28.3869 10.0795C28.0289 10.0795 27.7207 9.99503 27.4622 9.82599C27.2037 9.65696 27.0048 9.42412 26.8656 9.12749C26.7264 8.83085 26.6568 8.49195 26.6568 8.1108C26.6568 7.72301 26.728 7.3808 26.8706 7.08416C27.0147 6.78587 27.2153 6.55303 27.4721 6.38565C27.7306 6.21662 28.0323 6.1321 28.377 6.1321C28.6454 6.1321 28.8874 6.18182 29.1028 6.28125C29.3182 6.38068 29.4947 6.51989 29.6323 6.69886C29.7698 6.87784 29.8552 7.08665 29.8883 7.32528H29.3017C29.2569 7.15128 29.1575 6.99716 29.0034 6.86293C28.8509 6.72704 28.6454 6.65909 28.3869 6.65909C28.1582 6.65909 27.9577 6.71875 27.7853 6.83807C27.6146 6.95573 27.4812 7.12228 27.3851 7.33771C27.2907 7.55149 27.2434 7.80256 27.2434 8.09091C27.2434 8.38589 27.2898 8.64276 27.3826 8.86151C27.4771 9.08026 27.6097 9.25012 27.7804 9.37109C27.9527 9.49207 28.1549 9.55256 28.3869 9.55256C28.5394 9.55256 28.6777 9.52604 28.802 9.47301C28.9263 9.41998 29.0315 9.34375 29.1177 9.24432C29.2039 9.14489 29.2652 9.02557 29.3017 8.88636H29.8883C29.8552 9.11174 29.7731 9.31475 29.6422 9.49538C29.513 9.67436 29.3414 9.81688 29.1277 9.92294C28.9155 10.0273 28.6686 10.0795 28.3869 10.0795ZM30.7459 10V6.18182H33.7488V10H33.1621V6.72869H31.3326V10H30.7459ZM34.8201 11.4318V6.18182H35.3869V6.78835H35.4565C35.4996 6.72206 35.5592 6.63755 35.6355 6.5348C35.7134 6.4304 35.8244 6.33759 35.9686 6.25639C36.1144 6.17353 36.3116 6.1321 36.5602 6.1321C36.8817 6.1321 37.1651 6.21248 37.4103 6.37322C37.6556 6.53397 37.847 6.76184 37.9846 7.05682C38.1221 7.3518 38.1909 7.69981 38.1909 8.10085C38.1909 8.50521 38.1221 8.85571 37.9846 9.15234C37.847 9.44732 37.6564 9.67602 37.4128 9.83842C37.1692 9.99917 36.8883 10.0795 36.5701 10.0795C36.3249 10.0795 36.1285 10.0389 35.981 9.95774C35.8335 9.87488 35.72 9.78125 35.6404 9.67685C35.5609 9.57079 35.4996 9.48295 35.4565 9.41335H35.4068V11.4318H34.8201ZM35.3968 8.09091C35.3968 8.37926 35.4391 8.63364 35.5236 8.85405C35.6081 9.0728 35.7316 9.24432 35.894 9.36861C36.0564 9.49124 36.2553 9.55256 36.4906 9.55256C36.7359 9.55256 36.9405 9.48793 37.1046 9.35866C37.2703 9.22775 37.3946 9.05208 37.4775 8.83168C37.562 8.60961 37.6042 8.36269 37.6042 8.09091C37.6042 7.82244 37.5628 7.58049 37.4799 7.36506C37.3987 7.14796 37.2753 6.97644 37.1096 6.8505C36.9455 6.72289 36.7392 6.65909 36.4906 6.65909C36.252 6.65909 36.0514 6.71958 35.889 6.84055C35.7266 6.95987 35.604 7.12725 35.5211 7.34268C35.4383 7.55646 35.3968 7.80587 35.3968 8.09091ZM40.6866 10.0795C40.3187 10.0795 40.0014 9.99834 39.7346 9.83594C39.4694 9.67188 39.2647 9.44318 39.1206 9.14986C38.978 8.85488 38.9068 8.51184 38.9068 8.12074C38.9068 7.72964 38.978 7.38494 39.1206 7.08665C39.2647 6.7867 39.4653 6.55303 39.7221 6.38565C39.9806 6.21662 40.2823 6.1321 40.627 6.1321C40.8258 6.1321 41.0222 6.16525 41.2161 6.23153C41.41 6.29782 41.5865 6.40554 41.7456 6.55469C41.9047 6.70218 42.0314 6.89773 42.1259 7.14134C42.2203 7.38494 42.2676 7.6849 42.2676 8.04119V8.28977H39.3244V7.78267H41.671C41.671 7.56723 41.6279 7.375 41.5417 7.20597C41.4572 7.03693 41.3362 6.90353 41.1788 6.80575C41.023 6.70798 40.8391 6.65909 40.627 6.65909C40.3933 6.65909 40.1911 6.71709 40.0204 6.8331C39.8514 6.94744 39.7213 7.09659 39.6301 7.28054C39.539 7.46449 39.4934 7.66169 39.4934 7.87216V8.21023C39.4934 8.49858 39.5431 8.74302 39.6426 8.94354C39.7437 9.1424 39.8837 9.29403 40.0627 9.39844C40.2417 9.50118 40.4496 9.55256 40.6866 9.55256C40.8407 9.55256 40.9799 9.53101 41.1042 9.48793C41.2302 9.44318 41.3387 9.37689 41.4299 9.28906C41.521 9.19957 41.5914 9.08854 41.6412 8.95597L42.2079 9.11506C42.1483 9.30729 42.048 9.47633 41.9071 9.62216C41.7663 9.76634 41.5923 9.87902 41.3851 9.96023C41.178 10.0398 40.9451 10.0795 40.6866 10.0795ZM44.7111 10.0795C44.3532 10.0795 44.0449 9.99503 43.7864 9.82599C43.5279 9.65696 43.329 9.42412 43.1898 9.12749C43.0506 8.83085 42.981 8.49195 42.981 8.1108C42.981 7.72301 43.0523 7.3808 43.1948 7.08416C43.339 6.78587 43.5395 6.55303 43.7963 6.38565C44.0549 6.21662 44.3565 6.1321 44.7012 6.1321C44.9696 6.1321 45.2116 6.18182 45.427 6.28125C45.6425 6.38068 45.819 6.51989 45.9565 6.69886C46.094 6.87784 46.1794 7.08665 46.2125 7.32528H45.6259C45.5811 7.15128 45.4817 6.99716 45.3276 6.86293C45.1751 6.72704 44.9696 6.65909 44.7111 6.65909C44.4824 6.65909 44.2819 6.71875 44.1096 6.83807C43.9389 6.95573 43.8055 7.12228 43.7093 7.33771C43.6149 7.55149 43.5676 7.80256 43.5676 8.09091C43.5676 8.38589 43.6141 8.64276 43.7069 8.86151C43.8013 9.08026 43.9339 9.25012 44.1046 9.37109C44.2769 9.49207 44.4791 9.55256 44.7111 9.55256C44.8636 9.55256 45.002 9.52604 45.1262 9.47301C45.2505 9.41998 45.3558 9.34375 45.4419 9.24432C45.5281 9.14489 45.5894 9.02557 45.6259 8.88636H46.2125C46.1794 9.11174 46.0974 9.31475 45.9664 9.49538C45.8372 9.67436 45.6657 9.81688 45.4519 9.92294C45.2398 10.0273 44.9928 10.0795 44.7111 10.0795ZM48.6213 10.0795C48.2633 10.0795 47.9551 9.99503 47.6966 9.82599C47.438 9.65696 47.2392 9.42412 47.1 9.12749C46.9608 8.83085 46.8912 8.49195 46.8912 8.1108C46.8912 7.72301 46.9624 7.3808 47.1049 7.08416C47.2491 6.78587 47.4496 6.55303 47.7065 6.38565C47.965 6.21662 48.2666 6.1321 48.6113 6.1321C48.8798 6.1321 49.1217 6.18182 49.3372 6.28125C49.5526 6.38068 49.7291 6.51989 49.8667 6.69886C50.0042 6.87784 50.0895 7.08665 50.1227 7.32528H49.536C49.4913 7.15128 49.3919 6.99716 49.2377 6.86293C49.0853 6.72704 48.8798 6.65909 48.6213 6.65909C48.3926 6.65909 48.1921 6.71875 48.0197 6.83807C47.849 6.95573 47.7156 7.12228 47.6195 7.33771C47.525 7.55149 47.4778 7.80256 47.4778 8.09091C47.4778 8.38589 47.5242 8.64276 47.617 8.86151C47.7115 9.08026 47.844 9.25012 48.0147 9.37109C48.1871 9.49207 48.3893 9.55256 48.6213 9.55256C48.7737 9.55256 48.9121 9.52604 49.0364 9.47301C49.1607 9.41998 49.2659 9.34375 49.3521 9.24432C49.4383 9.14489 49.4996 9.02557 49.536 8.88636H50.1227C50.0895 9.11174 50.0075 9.31475 49.8766 9.49538C49.7473 9.67436 49.5758 9.81688 49.362 9.92294C49.1499 10.0273 48.903 10.0795 48.6213 10.0795ZM18.1989 18V17.4531H18.3381C18.4524 17.4531 18.5477 17.4308 18.6239 17.386C18.7002 17.3396 18.7615 17.2592 18.8079 17.1449C18.8559 17.0289 18.8924 16.8681 18.9173 16.6626C18.9438 16.4555 18.9628 16.192 18.9744 15.8722L19.044 14.1818H21.5895V18H21.0028V14.7287H19.6009L19.5412 16.0909C19.5279 16.4041 19.4998 16.68 19.4567 16.9187C19.4152 17.1557 19.3514 17.3545 19.2653 17.5153C19.1808 17.676 19.0681 17.797 18.9272 17.8782C18.7863 17.9594 18.6098 18 18.3977 18H18.1989ZM23.7894 18.0895C23.5475 18.0895 23.3279 18.0439 23.1307 17.9528C22.9335 17.86 22.7769 17.7266 22.6609 17.5526C22.5449 17.3769 22.4869 17.1648 22.4869 16.9162C22.4869 16.6974 22.5299 16.5201 22.6161 16.3842C22.7023 16.2467 22.8175 16.139 22.9616 16.0611C23.1058 15.9832 23.2649 15.9252 23.4389 15.8871C23.6146 15.8473 23.7911 15.8158 23.9684 15.7926C24.2004 15.7628 24.3885 15.7404 24.5327 15.7255C24.6785 15.7089 24.7846 15.6816 24.8509 15.6435C24.9188 15.6054 24.9528 15.5391 24.9528 15.4446V15.4247C24.9528 15.1795 24.8857 14.9889 24.7514 14.853C24.6188 14.7171 24.4175 14.6491 24.1474 14.6491C23.8673 14.6491 23.6477 14.7105 23.4886 14.8331C23.3295 14.9557 23.2177 15.0866 23.1531 15.2259L22.5962 15.027C22.6957 14.795 22.8282 14.6143 22.994 14.4851C23.1613 14.3542 23.3436 14.263 23.5408 14.2116C23.7397 14.1586 23.9353 14.1321 24.1275 14.1321C24.2501 14.1321 24.391 14.147 24.5501 14.1768C24.7108 14.205 24.8658 14.2638 25.0149 14.3533C25.1657 14.4428 25.2908 14.5779 25.3903 14.7585C25.4897 14.9392 25.5394 15.1811 25.5394 15.4844V18H24.9528V17.483H24.9229C24.8832 17.5658 24.8169 17.6545 24.7241 17.7489C24.6313 17.8434 24.5078 17.9238 24.3537 17.9901C24.1996 18.0563 24.0115 18.0895 23.7894 18.0895ZM23.8789 17.5625C24.1109 17.5625 24.3065 17.5169 24.4656 17.4258C24.6263 17.3346 24.7473 17.217 24.8285 17.0728C24.9113 16.9286 24.9528 16.777 24.9528 16.6179V16.081C24.9279 16.1108 24.8732 16.1381 24.7887 16.163C24.7058 16.1862 24.6097 16.2069 24.5004 16.2251C24.3926 16.2417 24.2874 16.2566 24.1847 16.2699C24.0836 16.2815 24.0015 16.2914 23.9386 16.2997C23.7861 16.3196 23.6436 16.3519 23.511 16.3967C23.3801 16.4397 23.274 16.5052 23.1928 16.593C23.1133 16.6792 23.0735 16.7969 23.0735 16.946C23.0735 17.1499 23.1489 17.304 23.2997 17.4084C23.4522 17.5111 23.6452 17.5625 23.8789 17.5625ZM29.444 12.75L29.7423 13.108C29.6263 13.2206 29.492 13.2994 29.3396 13.3441C29.1871 13.3888 29.0148 13.4162 28.8225 13.4261C28.6303 13.4361 28.4165 13.446 28.1812 13.456C27.916 13.4659 27.6965 13.5305 27.5225 13.6499C27.3485 13.7692 27.2142 13.9415 27.1198 14.1669C27.0253 14.3923 26.9648 14.669 26.9383 14.9972H26.988C27.1173 14.7585 27.2963 14.5829 27.5249 14.4702C27.7536 14.3575 27.9989 14.3011 28.2607 14.3011C28.559 14.3011 28.8275 14.3707 29.0661 14.5099C29.3048 14.6491 29.4937 14.8555 29.6329 15.1289C29.7721 15.4023 29.8417 15.7396 29.8417 16.1406C29.8417 16.54 29.7704 16.8847 29.6279 17.1747C29.4871 17.4647 29.289 17.6884 29.0338 17.8459C28.7803 18.0017 28.4828 18.0795 28.1414 18.0795C27.8 18.0795 27.5009 17.9992 27.2441 17.8384C26.9872 17.676 26.7875 17.4357 26.645 17.1175C26.5025 16.7977 26.4312 16.4025 26.4312 15.9318V15.5241C26.4312 14.674 26.5754 14.0294 26.8637 13.5902C27.1537 13.151 27.5896 12.924 28.1713 12.9091C28.3767 12.9025 28.5599 12.9008 28.7206 12.9041C28.8814 12.9074 29.0214 12.9 29.1407 12.8817C29.26 12.8635 29.3611 12.8196 29.444 12.75ZM28.1414 17.5526C28.3718 17.5526 28.5698 17.4946 28.7355 17.3786C28.9029 17.2625 29.0313 17.0993 29.1208 16.8888C29.2103 16.6767 29.2551 16.4273 29.2551 16.1406C29.2551 15.8622 29.2095 15.6252 29.1183 15.4297C29.0289 15.2341 28.9004 15.085 28.733 14.9822C28.5657 14.8795 28.3651 14.8281 28.1315 14.8281C27.9608 14.8281 27.8075 14.8571 27.6716 14.9151C27.5357 14.9731 27.4197 15.0585 27.3236 15.1712C27.2275 15.2839 27.1529 15.4214 27.0999 15.5838C27.0485 15.7462 27.0212 15.9318 27.0178 16.1406C27.0178 16.5682 27.1181 16.9104 27.3186 17.1673C27.5191 17.4241 27.7934 17.5526 28.1414 17.5526ZM32.2902 18.0795C31.9455 18.0795 31.6431 17.9975 31.3829 17.8335C31.1244 17.6694 30.9222 17.4399 30.7764 17.1449C30.6322 16.8499 30.5601 16.5052 30.5601 16.1108C30.5601 15.7131 30.6322 15.3659 30.7764 15.0692C30.9222 14.7726 31.1244 14.5423 31.3829 14.3782C31.6431 14.2141 31.9455 14.1321 32.2902 14.1321C32.6349 14.1321 32.9365 14.2141 33.195 14.3782C33.4552 14.5423 33.6574 14.7726 33.8016 15.0692C33.9474 15.3659 34.0203 15.7131 34.0203 16.1108C34.0203 16.5052 33.9474 16.8499 33.8016 17.1449C33.6574 17.4399 33.4552 17.6694 33.195 17.8335C32.9365 17.9975 32.6349 18.0795 32.2902 18.0795ZM32.2902 17.5526C32.5521 17.5526 32.7675 17.4854 32.9365 17.3512C33.1056 17.217 33.2307 17.0405 33.3119 16.8217C33.3931 16.603 33.4337 16.366 33.4337 16.1108C33.4337 15.8556 33.3931 15.6178 33.3119 15.3974C33.2307 15.177 33.1056 14.9988 32.9365 14.8629C32.7675 14.727 32.5521 14.6591 32.2902 14.6591C32.0284 14.6591 31.8129 14.727 31.6439 14.8629C31.4749 14.9988 31.3498 15.177 31.2686 15.3974C31.1874 15.6178 31.1468 15.8556 31.1468 16.1108C31.1468 16.366 31.1874 16.603 31.2686 16.8217C31.3498 17.0405 31.4749 17.217 31.6439 17.3512C31.8129 17.4854 32.0284 17.5526 32.2902 17.5526ZM34.9158 19.4318V14.1818H35.4826V14.7884H35.5522C35.5953 14.7221 35.6549 14.6375 35.7312 14.5348C35.8091 14.4304 35.9201 14.3376 36.0643 14.2564C36.2101 14.1735 36.4073 14.1321 36.6559 14.1321C36.9774 14.1321 37.2608 14.2125 37.506 14.3732C37.7513 14.534 37.9427 14.7618 38.0803 15.0568C38.2178 15.3518 38.2866 15.6998 38.2866 16.1009C38.2866 16.5052 38.2178 16.8557 38.0803 17.1523C37.9427 17.4473 37.7521 17.676 37.5085 17.8384C37.2649 17.9992 36.984 18.0795 36.6658 18.0795C36.4206 18.0795 36.2242 18.0389 36.0767 17.9577C35.9292 17.8749 35.8157 17.7812 35.7362 17.6768C35.6566 17.5708 35.5953 17.483 35.5522 17.4134H35.5025V19.4318H34.9158ZM35.4925 16.0909C35.4925 16.3793 35.5348 16.6336 35.6193 16.854C35.7038 17.0728 35.8273 17.2443 35.9897 17.3686C36.1521 17.4912 36.351 17.5526 36.5863 17.5526C36.8316 17.5526 37.0362 17.4879 37.2003 17.3587C37.366 17.2277 37.4903 17.0521 37.5732 16.8317C37.6577 16.6096 37.6999 16.3627 37.6999 16.0909C37.6999 15.8224 37.6585 15.5805 37.5756 15.3651C37.4944 15.148 37.371 14.9764 37.2053 14.8505C37.0412 14.7229 36.8349 14.6591 36.5863 14.6591C36.3477 14.6591 36.1471 14.7196 35.9847 14.8406C35.8223 14.9599 35.6997 15.1272 35.6168 15.3427C35.534 15.5565 35.4925 15.8059 35.4925 16.0909ZM40.305 18.0895C40.0631 18.0895 39.8435 18.0439 39.6463 17.9528C39.4491 17.86 39.2925 17.7266 39.1765 17.5526C39.0605 17.3769 39.0025 17.1648 39.0025 16.9162C39.0025 16.6974 39.0456 16.5201 39.1317 16.3842C39.2179 16.2467 39.3331 16.139 39.4773 16.0611C39.6214 15.9832 39.7805 15.9252 39.9545 15.8871C40.1302 15.8473 40.3067 15.8158 40.484 15.7926C40.716 15.7628 40.9041 15.7404 41.0483 15.7255C41.1941 15.7089 41.3002 15.6816 41.3665 15.6435C41.4344 15.6054 41.4684 15.5391 41.4684 15.4446V15.4247C41.4684 15.1795 41.4013 14.9889 41.267 14.853C41.1345 14.7171 40.9331 14.6491 40.663 14.6491C40.3829 14.6491 40.1634 14.7105 40.0043 14.8331C39.8452 14.9557 39.7333 15.0866 39.6687 15.2259L39.1119 15.027C39.2113 14.795 39.3439 14.6143 39.5096 14.4851C39.677 14.3542 39.8593 14.263 40.0565 14.2116C40.2553 14.1586 40.4509 14.1321 40.6431 14.1321C40.7657 14.1321 40.9066 14.147 41.0657 14.1768C41.2264 14.205 41.3814 14.2638 41.5305 14.3533C41.6813 14.4428 41.8065 14.5779 41.9059 14.7585C42.0053 14.9392 42.055 15.1811 42.055 15.4844V18H41.4684V17.483H41.4386C41.3988 17.5658 41.3325 17.6545 41.2397 17.7489C41.1469 17.8434 41.0234 17.9238 40.8693 17.9901C40.7152 18.0563 40.5271 18.0895 40.305 18.0895ZM40.3945 17.5625C40.6265 17.5625 40.8221 17.5169 40.9812 17.4258C41.1419 17.3346 41.2629 17.217 41.3441 17.0728C41.427 16.9286 41.4684 16.777 41.4684 16.6179V16.081C41.4435 16.1108 41.3888 16.1381 41.3043 16.163C41.2215 16.1862 41.1254 16.2069 41.016 16.2251C40.9083 16.2417 40.803 16.2566 40.7003 16.2699C40.5992 16.2815 40.5172 16.2914 40.4542 16.2997C40.3017 16.3196 40.1592 16.3519 40.0266 16.3967C39.8957 16.4397 39.7897 16.5052 39.7085 16.593C39.6289 16.6792 39.5891 16.7969 39.5891 16.946C39.5891 17.1499 39.6645 17.304 39.8153 17.4084C39.9678 17.5111 40.1609 17.5625 40.3945 17.5625ZM42.6063 14.7287V14.1818H45.7085V14.7287H44.4557V18H43.8691V14.7287H42.6063ZM47.9172 18.0795C47.5725 18.0795 47.27 17.9975 47.0099 17.8335C46.7513 17.6694 46.5492 17.4399 46.4033 17.1449C46.2591 16.8499 46.1871 16.5052 46.1871 16.1108C46.1871 15.7131 46.2591 15.3659 46.4033 15.0692C46.5492 14.7726 46.7513 14.5423 47.0099 14.3782C47.27 14.2141 47.5725 14.1321 47.9172 14.1321C48.2619 14.1321 48.5635 14.2141 48.822 14.3782C49.0822 14.5423 49.2844 14.7726 49.4285 15.0692C49.5744 15.3659 49.6473 15.7131 49.6473 16.1108C49.6473 16.5052 49.5744 16.8499 49.4285 17.1449C49.2844 17.4399 49.0822 17.6694 48.822 17.8335C48.5635 17.9975 48.2619 18.0795 47.9172 18.0795ZM47.9172 17.5526C48.179 17.5526 48.3944 17.4854 48.5635 17.3512C48.7325 17.217 48.8576 17.0405 48.9388 16.8217C49.02 16.603 49.0606 16.366 49.0606 16.1108C49.0606 15.8556 49.02 15.6178 48.9388 15.3974C48.8576 15.177 48.7325 14.9988 48.5635 14.8629C48.3944 14.727 48.179 14.6591 47.9172 14.6591C47.6553 14.6591 47.4399 14.727 47.2709 14.8629C47.1018 14.9988 46.9767 15.177 46.8955 15.3974C46.8143 15.6178 46.7737 15.8556 46.7737 16.1108C46.7737 16.366 46.8143 16.603 46.8955 16.8217C46.9767 17.0405 47.1018 17.217 47.2709 17.3512C47.4399 17.4854 47.6553 17.5526 47.9172 17.5526ZM50.5428 19.4318V14.1818H51.1096V14.7884H51.1792C51.2222 14.7221 51.2819 14.6375 51.3581 14.5348C51.436 14.4304 51.5471 14.3376 51.6912 14.2564C51.8371 14.1735 52.0343 14.1321 52.2828 14.1321C52.6043 14.1321 52.8877 14.2125 53.133 14.3732C53.3783 14.534 53.5697 14.7618 53.7072 15.0568C53.8448 15.3518 53.9135 15.6998 53.9135 16.1009C53.9135 16.5052 53.8448 16.8557 53.7072 17.1523C53.5697 17.4473 53.3791 17.676 53.1355 17.8384C52.8919 17.9992 52.611 18.0795 52.2928 18.0795C52.0475 18.0795 51.8511 18.0389 51.7037 17.9577C51.5562 17.8749 51.4426 17.7812 51.3631 17.6768C51.2836 17.5708 51.2222 17.483 51.1792 17.4134H51.1294V19.4318H50.5428ZM51.1195 16.0909C51.1195 16.3793 51.1618 16.6336 51.2463 16.854C51.3308 17.0728 51.4542 17.2443 51.6167 17.3686C51.7791 17.4912 51.9779 17.5526 52.2132 17.5526C52.4585 17.5526 52.6632 17.4879 52.8272 17.3587C52.993 17.2277 53.1172 17.0521 53.2001 16.8317C53.2846 16.6096 53.3269 16.3627 53.3269 16.0909C53.3269 15.8224 53.2855 15.5805 53.2026 15.3651C53.1214 15.148 52.9979 14.9764 52.8322 14.8505C52.6681 14.7229 52.4618 14.6591 52.2132 14.6591C51.9746 14.6591 51.7741 14.7196 51.6117 14.8406C51.4493 14.9599 51.3266 15.1272 51.2438 15.3427C51.1609 15.5565 51.1195 15.8059 51.1195 16.0909ZM55.3951 17.1349L57.2346 14.1818H57.9107V18H57.324V15.0469L55.4945 18H54.8084V14.1818H55.3951V17.1349ZM61.282 18V14.7188H60.2678C60.0392 14.7188 59.8593 14.7718 59.7284 14.8778C59.5975 14.9839 59.532 15.1297 59.532 15.3153C59.532 15.4976 59.5909 15.641 59.7085 15.7454C59.8279 15.8498 59.9911 15.902 60.1982 15.902H61.4312V16.4489H60.1982C59.9397 16.4489 59.7168 16.4033 59.5296 16.3121C59.3423 16.221 59.1981 16.0909 59.097 15.9219C58.9959 15.7512 58.9454 15.549 58.9454 15.3153C58.9454 15.08 58.9984 14.8778 59.1045 14.7088C59.2106 14.5398 59.3622 14.4097 59.5594 14.3185C59.7583 14.2274 59.9944 14.1818 60.2678 14.1818H61.8389V18H61.282ZM58.7366 18L59.8204 16.1009H60.4568L59.373 18H58.7366Z" fill="white"/>
<path fill-rule="evenodd" clip-rule="evenodd" d="M7.69856 5.05455C7.48399 5.12001 7.3189 5.34506 7.3189 5.57208C7.3189 5.78575 7.51748 6.06082 7.70811 6.11128L7.83806 6.14565V7.83435C7.83806 9.16916 7.82228 9.57016 7.76283 9.74787C7.72146 9.87151 6.93674 11.1236 6.01907 12.5302C5.10141 13.9369 4.30802 15.1757 4.25606 15.2831C3.93791 15.9405 3.9145 16.7557 4.19552 17.3888C4.50977 18.0967 5.13027 18.5983 6.00542 18.8519C6.39199 18.9639 6.54223 18.9703 9.31523 18.9919C12.6611 19.0181 13.007 18.9948 13.592 18.7033C14.8397 18.0818 15.3544 16.5497 14.7418 15.2814C14.6903 15.1749 13.8973 13.9369 12.9797 12.5302C12.062 11.1236 11.2773 9.87151 11.2359 9.74787C11.1765 9.57016 11.1607 9.16916 11.1607 7.83435V6.14565L11.2906 6.11128C11.3621 6.09234 11.4789 6.00379 11.5502 5.91447C11.8014 5.59972 11.6628 5.16467 11.2752 5.05116C11.0353 4.98094 7.93032 4.9839 7.69856 5.05455ZM10.0713 7.74442C10.0723 9.49557 10.1108 9.84661 10.3587 10.365C10.436 10.5266 11.1906 11.7178 12.0355 13.0122C13.8221 15.749 13.8963 15.873 13.9428 16.1997C14.0243 16.7727 13.7339 17.3722 13.2332 17.6642L12.9518 17.8284H9.65512C6.61351 17.8284 6.33633 17.8208 6.07291 17.7294C5.68894 17.5962 5.322 17.3052 5.18016 17.0216C5.02763 16.7166 5.01694 16.1151 5.15898 15.8308C5.21162 15.7254 5.98471 14.5186 6.87688 13.149C7.76906 11.7794 8.56239 10.5266 8.6398 10.365C8.88791 9.84704 8.92643 9.49601 8.92742 7.74442L8.9283 6.14357H9.49938H10.0705L10.0713 7.74442ZM8.85042 13.0729C8.46152 13.2481 8.31688 13.3023 8.13881 13.3395C8.02953 13.3623 7.80193 13.6391 7.11357 14.5861C6.30638 15.6968 6.22882 15.8227 6.22876 16.0238C6.22871 16.1451 6.26677 16.3016 6.31334 16.3717C6.49681 16.6479 6.54078 16.6517 9.49938 16.6517C12.458 16.6517 12.5019 16.6479 12.6854 16.3717C12.732 16.3016 12.7701 16.1439 12.7701 16.0212C12.7701 15.8165 12.6974 15.6985 11.884 14.5832C11.1995 13.6445 10.9663 13.3616 10.8587 13.3392C10.682 13.3023 10.5369 13.2479 10.1483 13.0729C9.92078 12.9705 9.74587 12.9327 9.49938 12.9327C9.25288 12.9327 9.07797 12.9705 8.85042 13.0729Z" fill="white"/>
</svg>
