<svg width="16" height="24" viewBox="0 0 16 24" fill="none" xmlns="http://www.w3.org/2000/svg">
<path fill-rule="evenodd" clip-rule="evenodd" d="M7.3344 0.0389382C4.17136 0.285581 1.41143 2.44191 0.409156 5.44955C0.0908438 6.40477 -0.060393 7.56031 0.0223137 8.40469C0.138639 9.59233 0.820889 11.5285 1.84907 13.5889C1.98866 13.8686 3.36138 16.2337 4.89952 18.8446C7.10923 22.5955 7.70762 23.5791 7.75084 23.5318C7.81462 23.4619 13.6158 14.1359 14.0215 13.451C14.6286 12.4261 15.317 10.9499 15.6246 10.0131C15.9106 9.14217 16.0025 8.61555 15.9999 7.86333C15.9896 4.8272 14.1506 2.00788 11.352 0.737581C10.4713 0.337809 9.58789 0.113287 8.5907 0.0357519C7.97195 -0.0124129 7.99365 -0.0124591 7.3344 0.0389382Z" fill="#38916C"/>
<path d="M8.14742 11.8666C4.90354 11.8666 2.29513 9.88249 2.18691 7.64033C2.10643 5.98091 2.97776 4.05787 5.06449 3.12549C5.84424 2.77584 7.17342 2.48447 8.46376 2.4706C8.92994 2.45672 9.29623 2.3041 9.84566 2.26248C10.3091 2.22085 10.9085 2.20698 11.3053 2.3485C11.8103 2.5705 12.1239 2.98952 12.4791 3.30863L12.1211 3.55838L12.7371 3.89137L12.0129 3.7665L11.9463 4.04677C11.383 3.99127 10.7697 3.89137 10.2147 3.83587C9.55707 3.68603 9.01041 3.58613 8.32779 3.56948C5.4058 3.52786 3.42729 5.50639 3.49389 7.41556C3.56049 9.85474 6.63509 10.7621 8.51648 10.7621C13.7583 10.7927 13.8526 6.15018 12.0406 6.05306C11.5217 6.02808 10.742 9.35525 9.48492 9.34137C8.40826 9.33027 7.77835 6.18903 7.25112 6.18903C6.80158 6.20013 6.291 8.44507 5.86921 9.21373C5.6389 9.64384 4.42349 8.42009 4.50673 8.22584C4.58998 8.0316 5.03674 8.90571 5.35308 8.63099C5.5612 8.44784 5.99686 5.1845 7.22337 5.0846C8.30281 5.00135 9.07979 8.55051 9.5432 8.51444C10.1148 8.50334 11.0028 5.04575 11.9601 5.14288C14.9876 5.45367 14.7129 11.8694 8.14742 11.8666Z" fill="white"/>
<path d="M10.6651 2.90618C10.9093 2.91728 11.0092 2.90341 11.023 2.85068C11.0369 2.79519 10.9065 2.73414 10.7317 2.68974C10.5568 2.64812 10.4015 2.71194 10.3904 2.76466C10.3737 2.82016 10.4819 2.90063 10.6651 2.90618Z" fill="#27926D"/>
</svg>
